<svg width="195" height="38" viewBox="0 0 195 38" fill="none" xmlns="http://www.w3.org/2000/svg">
    <circle cx="5" cy="9" r="5" fill="#83CC50"/>
    <circle cx="25" cy="9" r="5" fill="#83CC50"/>
    <circle cx="25" cy="29" r="5" fill="#83CC50"/>
    <circle cx="15" cy="19" r="7" fill="#83CC50"/>
    <circle cx="5" cy="29" r="5" fill="#83CC50"/>
    <rect x="6" y="13.1213" width="4" height="4" transform="rotate(-45 6 13.1213)" fill="#83CC50"/>
    <rect x="18" y="13.8284" width="4" height="4" transform="rotate(-45 18 13.8284)" fill="#83CC50"/>
    <rect x="18" y="24.8284" width="4" height="4" transform="rotate(-45 18 24.8284)" fill="#83CC50"/>
    <rect x="7" y="24.8284" width="4" height="4" transform="rotate(-45 7 24.8284)" fill="#83CC50"/>
    <path d="M44.056 30C43.8213 30 43.64 29.9253 43.512 29.776C43.4053 29.6053 43.3733 29.4133 43.416 29.2L47.832 8.4C47.8747 8.16533 47.992 7.97333 48.184 7.824C48.376 7.67467 48.5787 7.6 48.792 7.6H57.304C59.672 7.6 61.5707 8.09067 63 9.072C64.4507 10.0533 65.176 11.472 65.176 13.328C65.176 13.8613 65.112 14.416 64.984 14.992C64.4507 17.4453 63.3733 19.2587 61.752 20.432C60.152 21.6053 57.9547 22.192 55.16 22.192H50.84L49.368 29.2C49.3253 29.4347 49.208 29.6267 49.016 29.776C48.824 29.9253 48.6213 30 48.408 30H44.056ZM55.384 17.776C56.28 17.776 57.0587 17.5307 57.72 17.04C58.4027 16.5493 58.8507 15.8453 59.064 14.928C59.128 14.5653 59.16 14.2453 59.16 13.968C59.16 13.3493 58.9787 12.88 58.616 12.56C58.2533 12.2187 57.6347 12.048 56.76 12.048H52.92L51.704 17.776H55.384ZM87.4083 7.6C87.6003 7.6 87.7389 7.65333 87.8243 7.76C87.9309 7.86666 87.9843 7.99467 87.9843 8.144C87.9843 8.35733 87.8989 8.592 87.7283 8.848L78.2563 23.472C77.1469 25.2 76.1549 26.512 75.2803 27.408C74.4269 28.304 73.4776 28.9653 72.4323 29.392C71.3869 29.7973 70.0856 30 68.5283 30H66.8323C66.6189 30 66.4376 29.9253 66.2883 29.776C66.1603 29.6267 66.1176 29.4347 66.1603 29.2L66.8963 25.808C66.9389 25.5733 67.0563 25.3813 67.2483 25.232C67.4403 25.0827 67.6429 25.008 67.8563 25.008H69.1043C69.7229 25.008 70.2669 24.88 70.7363 24.624C71.2269 24.3467 71.7283 23.9093 72.2403 23.312L67.4723 8.592C67.4509 8.54933 67.4403 8.45333 67.4403 8.304C67.4616 8.112 67.5576 7.952 67.7283 7.824C67.8989 7.67467 68.1016 7.6 68.3363 7.6H72.4643C72.6776 7.6 72.8376 7.65333 72.9443 7.76C73.0723 7.86666 73.1683 8.03733 73.2323 8.272L76.0483 17.584L82.1283 8.272C82.3843 7.824 82.7469 7.6 83.2163 7.6H87.4083ZM99.133 30C98.8983 30 98.717 29.9253 98.589 29.776C98.4823 29.6053 98.4503 29.4133 98.493 29.2L102.013 12.72H96.061L95.453 15.632C94.685 19.2373 93.853 22.0533 92.957 24.08C92.061 26.0853 90.8877 27.568 89.437 28.528C87.9863 29.4667 86.0663 29.9573 83.677 30C83.4423 30 83.261 29.9147 83.133 29.744C83.0263 29.616 82.973 29.4773 82.973 29.328C82.973 29.264 82.9837 29.2107 83.005 29.168L83.741 25.808C83.7623 25.5947 83.8583 25.4133 84.029 25.264C84.1997 25.1147 84.413 25.0187 84.669 24.976C85.8637 24.784 86.8877 23.8453 87.741 22.16C88.5943 20.4533 89.3623 18.032 90.045 14.896L91.421 8.4C91.4637 8.16533 91.581 7.97333 91.773 7.824C91.965 7.67467 92.1677 7.6 92.381 7.6H108.029C108.242 7.6 108.424 7.67467 108.573 7.824C108.68 7.93067 108.733 8.06933 108.733 8.24C108.733 8.28267 108.722 8.336 108.701 8.4L104.253 29.2C104.21 29.4347 104.093 29.6267 103.901 29.776C103.709 29.9253 103.506 30 103.293 30H99.133ZM109.4 30C109.165 30 108.984 29.9253 108.856 29.776C108.749 29.6053 108.717 29.4133 108.76 29.2L113.176 8.4C113.218 8.16533 113.336 7.97333 113.528 7.824C113.72 7.67467 113.922 7.6 114.136 7.6H129.08C129.314 7.6 129.496 7.67467 129.624 7.824C129.73 7.93067 129.784 8.06933 129.784 8.24C129.784 8.28267 129.773 8.336 129.752 8.4L129.112 11.408C129.048 11.6427 128.92 11.8347 128.728 11.984C128.557 12.1333 128.354 12.208 128.12 12.208H117.944L116.984 16.528H126.488C126.722 16.528 126.904 16.6027 127.032 16.752C127.117 16.88 127.16 17.0187 127.16 17.168C127.16 17.232 127.149 17.296 127.128 17.36L126.52 20.144C126.477 20.3787 126.36 20.5707 126.168 20.72C125.976 20.8693 125.773 20.944 125.56 20.944H116.056L115.128 25.392H125.56C125.794 25.392 125.976 25.4667 126.104 25.616C126.189 25.7227 126.232 25.8507 126.232 26C126.232 26.064 126.221 26.128 126.2 26.192L125.56 29.2C125.517 29.4347 125.4 29.6267 125.208 29.776C125.037 29.9253 124.834 30 124.6 30H109.4ZM134.702 30C134.467 30 134.286 29.9253 134.158 29.776C134.03 29.6053 133.987 29.4133 134.03 29.2L137.582 12.624H131.886C131.651 12.624 131.47 12.5493 131.342 12.4C131.235 12.2293 131.203 12.0373 131.246 11.824L131.982 8.4C132.025 8.16533 132.142 7.97333 132.334 7.824C132.526 7.67467 132.729 7.6 132.942 7.6H150.158C150.393 7.6 150.574 7.67467 150.702 7.824C150.787 7.952 150.83 8.08 150.83 8.208C150.83 8.272 150.819 8.336 150.798 8.4L150.062 11.824C150.019 12.0587 149.902 12.2507 149.71 12.4C149.539 12.5493 149.337 12.624 149.102 12.624H143.438L139.886 29.2C139.843 29.4347 139.726 29.6267 139.534 29.776C139.342 29.9253 139.139 30 138.926 30H134.702ZM172.013 7.6C172.205 7.6 172.354 7.664 172.461 7.792C172.546 7.87733 172.589 7.984 172.589 8.112C172.589 8.15467 172.578 8.208 172.557 8.272C172.535 8.35733 172.461 8.48533 172.333 8.656L164.333 18.384L168.621 28.912C168.642 28.9547 168.653 29.008 168.653 29.072C168.653 29.136 168.642 29.2 168.621 29.264C168.599 29.4773 168.503 29.6587 168.333 29.808C168.162 29.936 167.97 30 167.757 30H163.277C162.978 30 162.754 29.9467 162.605 29.84C162.477 29.712 162.37 29.5627 162.285 29.392L159.053 21.232H156.621L154.925 29.2C154.882 29.4347 154.765 29.6267 154.573 29.776C154.402 29.9253 154.199 30 153.965 30H149.837C149.602 30 149.421 29.9253 149.293 29.776C149.186 29.6267 149.143 29.4347 149.165 29.2L153.613 8.4C153.655 8.16533 153.773 7.97333 153.965 7.824C154.157 7.67467 154.359 7.6 154.573 7.6H158.701C158.935 7.6 159.117 7.67467 159.245 7.824C159.351 7.93067 159.405 8.06933 159.405 8.24C159.405 8.28267 159.394 8.336 159.373 8.4L157.709 16.112L159.629 16.144L165.997 8.208C166.359 7.80267 166.797 7.6 167.309 7.6H172.013ZM170.602 30C170.41 30 170.26 29.9467 170.154 29.84C170.047 29.712 169.994 29.5627 169.994 29.392C169.994 29.2853 170.026 29.168 170.09 29.04L181.962 8.496C182.303 7.89867 182.783 7.6 183.402 7.6H188.33C188.948 7.6 189.3 7.89867 189.386 8.496L192.522 29.04C192.564 29.3387 192.511 29.5733 192.362 29.744C192.212 29.9147 192.02 30 191.786 30H187.914C187.359 30 187.039 29.744 186.954 29.232L186.41 26.064H177.866L175.946 29.328C175.626 29.776 175.231 30 174.762 30H170.602ZM186.09 21.456L184.906 13.008L180.138 21.456H186.09Z" fill="white"/>
</svg>
